<svg width="1600" height="900" viewBox="0 0 1600 900" fill="none" xmlns="http://www.w3.org/2000/svg">
  <defs>
    <filter id="shadow" x="-20%" y="-20%" width="140%" height="140%">
      <feDropShadow dx="0" dy="24" stdDeviation="28" flood-color="#0f172a" flood-opacity="0.14"/>
    </filter>
    <linearGradient id="bg" x1="0" y1="0" x2="1600" y2="900" gradientUnits="userSpaceOnUse">
      <stop stop-color="#f8fafc"/>
      <stop offset="1" stop-color="#e8edf4"/>
    </linearGradient>
    <linearGradient id="blue" x1="0" y1="0" x2="1" y2="0">
      <stop stop-color="#2563eb"/>
      <stop offset="1" stop-color="#60a5fa"/>
    </linearGradient>
  </defs>

  <rect width="1600" height="900" rx="0" fill="url(#bg)"/>

  <text x="104" y="108" fill="#0f172a" font-family="-apple-system, BlinkMacSystemFont, SF Pro Display, Segoe UI, sans-serif" font-size="54" font-weight="700">AriaPilot</text>
  <text x="106" y="154" fill="#64748b" font-family="-apple-system, BlinkMacSystemFont, SF Pro Text, Segoe UI, sans-serif" font-size="24">轻量级 macOS 菜单栏 aria2 下载管理工具</text>

  <g transform="translate(92 214)" filter="url(#shadow)">
    <rect width="420" height="430" rx="18" fill="#ffffff" stroke="#d8dee8"/>
    <rect x="0" y="0" width="420" height="52" rx="18" fill="#f8fafc"/>
    <circle cx="30" cy="26" r="6" fill="#22c55e"/>
    <text x="50" y="33" fill="#475569" font-family="-apple-system, BlinkMacSystemFont, SF Pro Text, Segoe UI, sans-serif" font-size="16">↓ 12.4 MB/s   ↑ 320 KB/s</text>
    <line x1="0" y1="52" x2="420" y2="52" stroke="#e2e8f0"/>

    <g transform="translate(14 66)">
      <rect width="392" height="34" rx="8" fill="#eff6ff"/>
      <text x="84" y="23" fill="#1d4ed8" font-family="-apple-system, BlinkMacSystemFont, SF Pro Text, Segoe UI, sans-serif" font-size="15" font-weight="600">下载中</text>
      <rect x="130" y="9" width="24" height="16" rx="8" fill="#dbeafe"/>
      <text x="138" y="22" fill="#1d4ed8" font-family="-apple-system, BlinkMacSystemFont, SF Pro Text, Segoe UI, sans-serif" font-size="12">3</text>
      <text x="250" y="23" fill="#64748b" font-family="-apple-system, BlinkMacSystemFont, SF Pro Text, Segoe UI, sans-serif" font-size="15">已完成</text>
      <rect x="302" y="9" width="28" height="16" rx="8" fill="#e2e8f0"/>
      <text x="310" y="22" fill="#64748b" font-family="-apple-system, BlinkMacSystemFont, SF Pro Text, Segoe UI, sans-serif" font-size="12">18</text>
    </g>

    <g transform="translate(22 122)">
      <text x="0" y="18" fill="#0f172a" font-family="-apple-system, BlinkMacSystemFont, SF Pro Text, Segoe UI, sans-serif" font-size="15">ubuntu-24.04-desktop.iso</text>
      <rect x="0" y="32" width="290" height="7" rx="3.5" fill="#e2e8f0"/>
      <rect x="0" y="32" width="198" height="7" rx="3.5" fill="url(#blue)"/>
      <text x="306" y="40" fill="#64748b" font-family="-apple-system, BlinkMacSystemFont, SF Pro Text, Segoe UI, sans-serif" font-size="13">68.1%</text>
      <text x="0" y="66" fill="#64748b" font-family="-apple-system, BlinkMacSystemFont, SF Pro Text, Segoe UI, sans-serif" font-size="13">↓ 6.2 MB/s</text>
      <text x="340" y="66" fill="#334155" font-family="-apple-system, BlinkMacSystemFont, SF Pro Text, Segoe UI, sans-serif" font-size="14">暂停</text>
      <line x1="0" y1="84" x2="376" y2="84" stroke="#e2e8f0"/>
    </g>

    <g transform="translate(22 220)">
      <text x="0" y="18" fill="#0f172a" font-family="-apple-system, BlinkMacSystemFont, SF Pro Text, Segoe UI, sans-serif" font-size="15">Xcode_16.4.xip</text>
      <rect x="0" y="32" width="290" height="7" rx="3.5" fill="#e2e8f0"/>
      <rect x="0" y="32" width="122" height="7" rx="3.5" fill="url(#blue)"/>
      <text x="306" y="40" fill="#64748b" font-family="-apple-system, BlinkMacSystemFont, SF Pro Text, Segoe UI, sans-serif" font-size="13">42.0%</text>
      <text x="0" y="66" fill="#64748b" font-family="-apple-system, BlinkMacSystemFont, SF Pro Text, Segoe UI, sans-serif" font-size="13">↓ 4.8 MB/s</text>
      <text x="340" y="66" fill="#334155" font-family="-apple-system, BlinkMacSystemFont, SF Pro Text, Segoe UI, sans-serif" font-size="14">暂停</text>
      <line x1="0" y1="84" x2="376" y2="84" stroke="#e2e8f0"/>
    </g>

    <g transform="translate(18 374)">
      <text x="4" y="24" fill="#334155" font-family="-apple-system, BlinkMacSystemFont, SF Pro Text, Segoe UI, sans-serif" font-size="15">添加</text>
      <text x="178" y="24" fill="#334155" font-family="-apple-system, BlinkMacSystemFont, SF Pro Text, Segoe UI, sans-serif" font-size="15">打开窗口</text>
      <text x="324" y="24" fill="#334155" font-family="-apple-system, BlinkMacSystemFont, SF Pro Text, Segoe UI, sans-serif" font-size="15">设置</text>
      <text x="370" y="24" fill="#334155" font-family="-apple-system, BlinkMacSystemFont, SF Pro Text, Segoe UI, sans-serif" font-size="15">退出</text>
    </g>
  </g>

  <g transform="translate(580 178)" filter="url(#shadow)">
    <rect width="890" height="560" rx="18" fill="#ffffff" stroke="#d8dee8"/>
    <rect width="890" height="54" rx="18" fill="#f8fafc"/>
    <circle cx="30" cy="27" r="7" fill="#ef4444"/>
    <circle cx="54" cy="27" r="7" fill="#f59e0b"/>
    <circle cx="78" cy="27" r="7" fill="#22c55e"/>
    <text x="360" y="35" fill="#0f172a" font-family="-apple-system, BlinkMacSystemFont, SF Pro Display, Segoe UI, sans-serif" font-size="20" font-weight="600">AriaPilot 下载任务</text>
    <line x1="0" y1="54" x2="890" y2="54" stroke="#e2e8f0"/>

    <g transform="translate(22 70)">
      <rect width="846" height="38" rx="9" fill="#f8fafc"/>
      <rect x="6" y="5" width="410" height="28" rx="7" fill="#eff6ff"/>
      <text x="170" y="25" fill="#1d4ed8" font-family="-apple-system, BlinkMacSystemFont, SF Pro Text, Segoe UI, sans-serif" font-size="15" font-weight="600">下载中 3</text>
      <text x="572" y="25" fill="#64748b" font-family="-apple-system, BlinkMacSystemFont, SF Pro Text, Segoe UI, sans-serif" font-size="15">已完成 18</text>
    </g>

    <g transform="translate(42 138)">
      <text x="0" y="18" fill="#0f172a" font-family="-apple-system, BlinkMacSystemFont, SF Pro Text, Segoe UI, sans-serif" font-size="16">ubuntu-24.04-desktop.iso</text>
      <rect x="0" y="36" width="620" height="8" rx="4" fill="#e2e8f0"/>
      <rect x="0" y="36" width="422" height="8" rx="4" fill="url(#blue)"/>
      <text x="650" y="44" fill="#64748b" font-family="-apple-system, BlinkMacSystemFont, SF Pro Text, Segoe UI, sans-serif" font-size="14">68.1%</text>
      <text x="0" y="72" fill="#64748b" font-family="-apple-system, BlinkMacSystemFont, SF Pro Text, Segoe UI, sans-serif" font-size="14">下载中  ↓ 6.2 MB/s</text>
      <text x="760" y="72" fill="#334155" font-family="-apple-system, BlinkMacSystemFont, SF Pro Text, Segoe UI, sans-serif" font-size="14">暂停  删除</text>
      <line x1="0" y1="96" x2="806" y2="96" stroke="#e2e8f0"/>
    </g>

    <g transform="translate(42 254)">
      <text x="0" y="18" fill="#0f172a" font-family="-apple-system, BlinkMacSystemFont, SF Pro Text, Segoe UI, sans-serif" font-size="16">Xcode_16.4.xip</text>
      <rect x="0" y="36" width="620" height="8" rx="4" fill="#e2e8f0"/>
      <rect x="0" y="36" width="260" height="8" rx="4" fill="url(#blue)"/>
      <text x="650" y="44" fill="#64748b" font-family="-apple-system, BlinkMacSystemFont, SF Pro Text, Segoe UI, sans-serif" font-size="14">42.0%</text>
      <text x="0" y="72" fill="#64748b" font-family="-apple-system, BlinkMacSystemFont, SF Pro Text, Segoe UI, sans-serif" font-size="14">下载中  ↓ 4.8 MB/s</text>
      <text x="760" y="72" fill="#334155" font-family="-apple-system, BlinkMacSystemFont, SF Pro Text, Segoe UI, sans-serif" font-size="14">暂停  删除</text>
      <line x1="0" y1="96" x2="806" y2="96" stroke="#e2e8f0"/>
    </g>

    <g transform="translate(42 370)">
      <text x="0" y="18" fill="#0f172a" font-family="-apple-system, BlinkMacSystemFont, SF Pro Text, Segoe UI, sans-serif" font-size="16">dataset-backup.tar.gz</text>
      <rect x="0" y="36" width="620" height="8" rx="4" fill="#e2e8f0"/>
      <rect x="0" y="36" width="116" height="8" rx="4" fill="url(#blue)"/>
      <text x="650" y="44" fill="#64748b" font-family="-apple-system, BlinkMacSystemFont, SF Pro Text, Segoe UI, sans-serif" font-size="14">18.7%</text>
      <text x="0" y="72" fill="#64748b" font-family="-apple-system, BlinkMacSystemFont, SF Pro Text, Segoe UI, sans-serif" font-size="14">下载中  ↓ 1.4 MB/s</text>
      <text x="760" y="72" fill="#334155" font-family="-apple-system, BlinkMacSystemFont, SF Pro Text, Segoe UI, sans-serif" font-size="14">暂停  删除</text>
    </g>

    <line x1="0" y1="500" x2="890" y2="500" stroke="#e2e8f0"/>
    <text x="28" y="532" fill="#334155" font-family="-apple-system, BlinkMacSystemFont, SF Pro Text, Segoe UI, sans-serif" font-size="15">添加</text>
    <text x="800" y="532" fill="#334155" font-family="-apple-system, BlinkMacSystemFont, SF Pro Text, Segoe UI, sans-serif" font-size="15">设置</text>
  </g>
</svg>
